<?xml version="1.0" encoding="UTF-8" standalone="no"?>
<svg
   xmlns:dc="http://purl.org/dc/elements/1.1/"
   xmlns:cc="http://creativecommons.org/ns#"
   xmlns:rdf="http://www.w3.org/1999/02/22-rdf-syntax-ns#"
   xmlns:svg="http://www.w3.org/2000/svg"
   xmlns="http://www.w3.org/2000/svg"
   xmlns:sodipodi="http://sodipodi.sourceforge.net/DTD/sodipodi-0.dtd"
   xmlns:inkscape="http://www.inkscape.org/namespaces/inkscape"
   width="500"
   height="99"
   version="1.1"
   id="svg4"
   sodipodi:docname="logo.svg"
   inkscape:version="0.92.0 r15299">
  <metadata
     id="metadata10">
    <rdf:RDF>
      <cc:Work
         rdf:about="">
        <dc:format>image/svg+xml</dc:format>
        <dc:type
           rdf:resource="http://purl.org/dc/dcmitype/StillImage" />
        <dc:title></dc:title>
      </cc:Work>
    </rdf:RDF>
  </metadata>
  <defs
     id="defs8" />
  <sodipodi:namedview
     pagecolor="#ffffff"
     bordercolor="#666666"
     borderopacity="1"
     objecttolerance="10"
     gridtolerance="10"
     guidetolerance="10"
     inkscape:pageopacity="0"
     inkscape:pageshadow="2"
     inkscape:window-width="1048"
     inkscape:window-height="633"
     id="namedview6"
     showgrid="false"
     inkscape:zoom="0.7"
     inkscape:cx="235.06117"
     inkscape:cy="49.5"
     inkscape:window-x="0"
     inkscape:window-y="40"
     inkscape:window-maximized="0"
     inkscape:current-layer="svg4" />
  <path
     style="fill:#f02646; stroke:none;"
     d="M23.902 36.375L13 36.375L13 28.0096L43.336 28.0096L43.336 36.375L32.434 36.375L32.434 70.8462L23.902 70.8462L23.902 36.375M54.238 49.5C54.238 51.5192 54.712 53.3942 55.186 55.125C55.66 56.7115 56.608 58.1538 57.556 59.4519C58.504 60.75 59.926 61.6154 61.348 62.3365C62.77 63.0577 64.192 63.3462 66.088 63.3462C67.984 63.3462 69.406 63.0577 71.302 62.3365C72.724 61.6154 73.672 60.75 74.62 59.4519C76.042 58.1538 76.516 56.7115 77.464 55.125C77.938 53.3942 77.938 51.5192 77.938 49.5C77.938 47.4808 77.938 45.75 77.464 44.0192C76.516 42.2885 76.042 40.8462 74.62 39.5481C73.672 38.3942 72.724 37.3846 71.302 36.6635C69.406 35.9423 67.984 35.6538 66.088 35.6538C64.192 35.6538 62.77 35.9423 61.348 36.6635C59.926 37.3846 58.504 38.3942 57.556 39.5481C56.608 40.8462 55.66 42.2885 55.186 44.0192C54.712 45.75 54.238 47.4808 54.238 49.5L54.238 49.5M45.706 49.5C45.706 46.0385 46.18 43.0096 47.128 40.2692C48.076 37.3846 49.498 35.0769 51.394 33.0577C53.29 31.1827 55.186 29.5962 58.03 28.5865C60.4 27.5769 63.244 27 66.088 27C69.406 27 71.776 27.5769 74.62 28.5865C76.99 29.5962 78.886 31.1827 80.782 33.0577C82.678 35.0769 84.1 37.3846 85.048 40.2692C86.47 43.0096 86.944 46.0385 86.944 49.5C86.944 52.9615 86.47 55.9904 85.048 58.875C84.1 61.6154 82.678 63.9231 80.782 65.9423C78.886 67.9615 76.99 69.4038 74.62 70.4135C71.776 71.4231 69.406 72 66.088 72C63.244 72 60.4 71.4231 58.03 70.4135C55.186 69.4038 53.29 67.9615 51.394 65.9423C49.498 63.9231 48.076 61.6154 47.128 58.875C46.18 55.9904 45.706 52.9615 45.706 49.5L45.706 49.5M101.638 52.5288L87.418 28.0096L97.846 28.0096L105.904 44.0192L114.436 28.0096L124.39 28.0096L110.17 52.5288L110.17 70.8462L101.638 70.8462L101.638 52.5288M133.87 49.5C133.87 51.5192 134.344 53.3942 134.818 55.125C135.292 56.7115 136.24 58.1538 137.188 59.4519C138.136 60.75 139.558 61.6154 140.98 62.3365C142.402 63.0577 144.298 63.3462 146.194 63.3462C147.616 63.3462 149.512 63.0577 150.934 62.3365C152.356 61.6154 153.778 60.75 154.726 59.4519C155.674 58.1538 156.622 56.7115 157.096 55.125C157.57 53.3942 158.044 51.5192 158.044 49.5C158.044 47.4808 157.57 45.75 157.096 44.0192C156.622 42.2885 155.674 40.8462 154.726 39.5481C153.778 38.3942 152.356 37.3846 150.934 36.6635C149.512 35.9423 147.616 35.6538 146.194 35.6538C144.298 35.6538 142.402 35.9423 140.98 36.6635C139.558 37.3846 138.136 38.3942 137.188 39.5481C136.24 40.8462 135.292 42.2885 134.818 44.0192C134.344 45.75 133.87 47.4808 133.87 49.5L133.87 49.5M125.338 49.5C125.338 46.0385 125.812 43.0096 126.76 40.2692C127.708 37.3846 129.13 35.0769 131.026 33.0577C132.922 31.1827 135.292 29.5962 137.662 28.5865C140.032 27.5769 142.876 27 146.194 27C149.038 27 151.882 27.5769 154.252 28.5865C156.622 29.5962 158.992 31.1827 160.888 33.0577C162.784 35.0769 164.206 37.3846 165.154 40.2692C166.102 43.0096 166.576 46.0385 166.576 49.5C166.576 52.9615 166.102 55.9904 165.154 58.875C164.206 61.6154 162.784 63.9231 160.888 65.9423C158.992 67.9615 156.622 69.4038 154.252 70.4135C151.882 71.4231 149.038 72 146.194 72C142.876 72 140.032 71.4231 137.662 70.4135C135.292 69.4038 132.922 67.9615 131.026 65.9423C129.13 63.9231 127.708 61.6154 126.76 58.875C125.812 55.9904 125.338 52.9615 125.338 49.5L125.338 49.5M179.848 36.375L168.946 36.375L168.946 28.0096L198.808 28.0096L198.808 36.375L187.906 36.375L187.906 70.8462L179.848 70.8462L179.848 36.375M219.19 40.5577L214.45 53.8269L223.456 53.8269L219.19 40.5577M215.872 28.0096L222.508 28.0096L239.098 70.8462L229.618 70.8462L226.774 61.7596L211.606 61.7596L208.762 70.8462L199.282 70.8462L215.872 28.0096M273.226 62.1923L292.186 36.375L273.7 36.375L273.7 28.0096L302.614 28.0096L302.614 36.375L283.654 62.1923L303.088 62.1923L303.088 70.8462L273.226 70.8462L273.226 62.1923M324.892 40.5577L320.152 53.8269L329.158 53.8269L324.892 40.5577M321.574 28.0096L328.684 28.0096L345.274 70.8462L335.32 70.8462L332.476 61.7596L317.308 61.7596L314.464 70.8462L304.984 70.8462L321.574 28.0096M349.066 28.0096L361.39 28.0096L370.396 55.9904L370.396 55.9904L379.402 28.0096L391.726 28.0096L391.726 70.8462L383.668 70.8462L383.668 37.9615L383.668 37.9615L373.24 70.8462L367.078 70.8462L357.598 37.9615L357.124 37.9615L357.124 70.8462L349.066 70.8462L349.066 28.0096M408.316 62.9135L415.9 62.9135C416.374 62.9135 416.848 62.9135 417.796 62.625C418.27 62.4808 418.744 62.1923 419.692 61.7596C420.166 61.4712 420.64 60.8942 420.64 60.3173C421.114 59.5962 421.588 58.875 421.588 57.8654C421.588 56.8558 421.114 55.9904 420.64 55.4135C420.166 54.8365 419.692 54.2596 418.744 53.9712C418.27 53.6827 417.322 53.3942 416.848 53.25C415.9 53.25 415.426 53.1058 414.478 53.1058L408.316 53.1058L408.316 62.9135M408.316 45.1731L414.478 45.1731C414.952 45.1731 415.426 45.1731 416.374 44.8846C416.848 44.7404 417.322 44.4519 417.796 44.1635C418.27 43.7308 418.744 43.2981 419.218 42.7212C419.218 42.1442 419.692 41.2788 419.692 40.4135C419.692 39.5481 419.218 38.8269 419.218 38.25C418.744 37.6731 418.27 37.2404 417.796 36.8077C417.322 36.5192 416.374 36.375 415.9 36.2308C415.426 36.0865 414.478 35.9423 414.004 35.9423L408.316 35.9423L408.316 45.1731M399.784 28.0096L414.004 28.0096C415.426 28.0096 417.322 28.1538 418.744 28.4423C420.64 28.7308 422.062 29.1635 423.484 30.0288C424.906 30.75 425.854 31.9038 426.802 33.3462C427.75 34.6442 427.75 36.5192 427.75 38.9712C427.75 41.4231 427.276 43.2981 426.328 44.8846C424.906 46.6154 423.484 47.625 421.588 48.3462L421.588 48.4904C422.536 48.6346 423.958 49.0673 424.906 49.6442C425.854 50.2212 426.802 50.9423 427.276 51.9519C428.224 52.8173 428.698 53.8269 429.172 55.125C429.646 56.2788 429.646 57.5769 429.646 58.875C429.646 61.1827 429.172 63.0577 428.224 64.6442C427.75 66.0865 426.328 67.3846 424.906 68.25C423.484 69.2596 422.062 69.8365 420.64 70.2692C418.744 70.7019 417.322 70.8462 415.426 70.8462L399.784 70.8462L399.784 28.0096M434.86 28.0096L442.918 28.0096L442.918 70.8462L434.86 70.8462L434.86 28.0096M466.618 40.5577L461.878 53.8269L470.884 53.8269L466.618 40.5577M463.3 28.0096L470.41 28.0096L487 70.8462L477.046 70.8462L474.202 61.7596L459.034 61.7596L456.19 70.8462L446.71 70.8462L463.3 28.0096z"
     id="path2" />
</svg>
